<?xml version="1.0" encoding="utf-8"?>
<!-- Generator: Adobe Illustrator 16.0.0, SVG Export Plug-In . SVG Version: 6.00 Build 0)  -->
<!DOCTYPE svg PUBLIC "-//W3C//DTD SVG 1.1//EN" "http://www.w3.org/Graphics/SVG/1.1/DTD/svg11.dtd">
<svg version="1.1" id="Layer_1" xmlns="http://www.w3.org/2000/svg" xmlns:xlink="http://www.w3.org/1999/xlink" x="0px" y="0px"
	 width="750px" height="153.256px" viewBox="0 0 750 153.256" enable-background="new 0 0 750 153.256" xml:space="preserve">
<g>
	<path fill="#FFD85F" d="M46.456,106.801c-8.142-7.663-12.931-18.199-12.931-30.173c0-11.973,4.789-22.51,12.452-30.172
		c6.705-6.705,6.705-17.241,0-23.947c-6.705-6.705-17.241-6.705-23.946,0C8.621,36.398,0,55.555,0,76.628s8.621,40.229,22.51,54.119
		c6.704,6.705,17.241,6.705,23.946,0C52.682,124.042,52.682,113.505,46.456,106.801"/>
	<path fill="#3BB4E7" d="M46.456,46.456c7.663-8.142,18.199-12.931,30.172-12.931c11.974,0,22.51,4.789,30.173,12.452
		c6.705,6.705,17.241,6.705,23.946,0s6.705-17.241,0-23.946C116.858,8.621,97.701,0,76.628,0C55.556,0,36.398,8.621,22.51,22.51
		c-6.705,6.705-6.705,17.241,0,23.946C29.214,52.682,39.751,52.682,46.456,46.456"/>
	<path fill="#ED5C68" d="M106.801,106.801c-7.663,8.142-18.199,12.931-30.172,12.931c-11.974,0-22.51-4.789-30.173-12.451
		c-6.705-6.706-17.241-6.706-23.946,0c-6.705,6.705-6.705,17.24,0,23.945c13.889,13.41,33.046,22.03,54.119,22.03
		c21.072,0,40.23-8.62,54.118-22.509c6.705-6.705,6.705-17.242,0-23.946C124.042,100.575,113.506,100.575,106.801,106.801"/>
	<path fill="#308BC5" d="M34.483,17.72c9.257,0,16.762,7.505,16.762,16.763c0,9.257-7.505,16.762-16.762,16.762
		c-9.258,0-16.763-7.505-16.763-16.762C17.72,25.225,25.225,17.72,34.483,17.72"/>
	<path fill="#D5465F" d="M34.483,102.011c9.257,0,16.762,7.505,16.762,16.763c0,9.259-7.505,16.763-16.762,16.763
		c-9.258,0-16.763-7.504-16.763-16.763C17.72,109.516,25.225,102.011,34.483,102.011"/>
	<path fill="#FFFFFF" d="M205.938,92.433c4.789-3.831,5.747-1.437,9.578,2.395c1.916,1.916,7.663,5.747,3.832,8.621
		c-7.663,6.227-14.368,9.1-24.425,9.1c-22.031,0-37.836-16.763-36.878-38.314c0.479-10.058,4.311-19.157,11.973-25.383
		c7.184-5.747,15.805-8.621,24.905-8.142c4.789,0,8.62,0.958,12.931,2.395c2.873,0.958,5.747,2.394,8.141,4.31
		c4.79,3.831,2.395,5.747-0.958,9.578c-0.957,0.958-1.436,1.916-2.394,2.395c-1.916,1.916-3.353,3.353-5.747,1.437
		c-4.789-3.353-11.494-5.268-17.241-3.832c-19.158,4.79-18.2,38.794,5.268,38.794C198.755,96.264,203.065,94.828,205.938,92.433
		 M738.026,111.111c-3.352,0-5.747-2.395-5.747-5.747V30.173c0-3.353,2.396-5.748,5.747-5.748h6.227
		c3.353,0,5.747,2.395,5.747,5.748v75.191c0,3.353-2.395,5.747-5.747,5.747H738.026z M704.98,102.491
		c-6.704,6.226-13.409,9.578-22.988,9.578c-19.636,0-28.735-16.283-28.735-34.004V47.414c0-3.352,2.395-5.747,5.747-5.747h6.226
		c3.353,0,5.747,2.395,5.747,5.747v30.651c0,10.058,5.269,17.721,16.284,17.721c10.536,0,17.241-9.1,17.241-18.678V47.414
		c0-3.352,2.395-5.747,5.747-5.747h6.226c3.353,0,5.748,2.395,5.748,5.747v57.95c0,3.353-2.396,5.747-5.748,5.747h-5.268
		c-3.353,0-5.269-2.873-5.747-5.747L704.98,102.491z M630.269,42.146h11.972c3.354,0,5.748,2.873,5.748,5.747v3.831
		c0,3.353-2.395,5.747-5.748,5.747h-11.972v47.893c0,3.353-2.395,5.747-5.747,5.747h-6.227c-3.353,0-5.747-2.395-5.747-5.747V39.751
		c0-14.368,8.142-25.862,22.988-27.299h9.1c3.353,0,5.747,2.874,5.747,5.747v3.832c0,3.352-2.395,5.747-5.747,5.747h-4.789
		c-7.184,0-10.058,5.268-10.058,11.973v2.395H630.269z M586.686,42.146h13.41c3.353,0,5.747,2.395,5.747,5.747v3.831
		c0,3.353-2.395,5.747-5.747,5.747h-13.41v29.215c0,5.747,2.874,8.62,8.621,8.62h2.873c3.354,0,5.747,2.396,5.747,5.747v4.311
		c0,3.353-2.394,5.747-5.747,5.747h-8.142c-14.367-0.957-20.594-10.058-20.594-24.425V30.173c0-3.353,2.395-5.748,5.747-5.748h6.227
		c3.353,0,5.747,2.395,5.747,5.748v11.973H586.686z M394.636,42.146h13.41c3.353,0,5.747,2.395,5.747,5.747v3.831
		c0,3.353-2.395,5.747-5.747,5.747h-13.41v29.215c0,5.747,2.874,9.1,8.621,9.1h2.873c3.353,0,5.747,2.395,5.747,5.747v3.831
		c0,3.353-2.395,5.747-5.747,5.747h-3.831c-15.805,0-24.904-6.705-24.904-24.425V30.173c0-3.353,2.395-5.748,5.747-5.748h6.227
		c3.353,0,5.747,2.395,5.747,5.748v11.973H394.636z M316.571,50.288c6.226-6.226,13.41-9.579,22.031-9.579
		c19.636,0,29.693,15.805,29.693,34.004v30.651c0,3.353-2.394,5.747-5.747,5.747h-6.226c-3.352,0-5.747-2.395-5.747-5.747V74.713
		c0-10.058-5.268-17.721-16.284-17.721c-10.536,0-17.241,8.621-17.241,18.679v29.693c0,3.353-2.394,5.747-5.747,5.747h-6.226
		c-3.353,0-5.747-2.395-5.747-5.747v-57.95c0-3.352,2.394-5.747,5.747-5.747h5.268c3.353,0,5.269,2.874,5.747,5.747L316.571,50.288z
		 M509.1,50.288c6.225-6.226,13.41-9.579,22.03-9.579c19.637,0,29.693,15.805,29.693,34.004v30.651c0,3.353-2.395,5.747-5.747,5.747
		h-6.226c-3.353,0-5.747-2.395-5.747-5.747V74.713c0-10.058-5.269-17.721-16.283-17.721c-10.538,0-17.242,8.621-17.242,18.679
		v29.693c0,3.353-2.395,5.747-5.747,5.747h-6.226c-3.353,0-5.747-2.395-5.747-5.747v-57.95c0-3.352,2.395-5.747,5.747-5.747h5.269
		c3.352,0,5.268,2.874,5.747,5.747L509.1,50.288z M257.663,40.23c-21.073,0-35.92,15.326-35.92,36.399
		c0,21.073,14.847,36.398,35.92,36.398c21.552,0,36.399-14.847,36.399-36.398C294.062,55.556,278.736,40.23,257.663,40.23
		 M432.949,82.854c1.438,9.579,11.017,13.89,20.116,13.89c4.31,0,9.1-0.958,12.931-2.874c0.479-0.479,1.437-0.479,1.916-0.958
		c2.395-1.437,4.31-1.915,6.226,0l3.353,3.353l2.874,2.874c2.873,3.831,0.957,4.789-2.395,6.705
		c-7.185,4.789-16.284,7.184-24.904,7.184c-22.989,0-38.314-13.889-38.314-36.877c0-22.031,15.325-36.399,36.877-36.399
		c22.51,0,34.962,12.931,35.441,35.441c0,6.226,0.479,8.142-5.747,8.142h-48.373V82.854z M257.663,56.514
		c11.016,0,18.199,9.578,18.199,20.115c0,11.015-6.704,19.635-18.199,19.635c-11.494,0-18.199-8.62-18.199-19.635
		C239.464,65.613,246.647,56.514,257.663,56.514 M433.429,68.008h35.92c-1.437-9.1-8.621-12.452-17.241-12.452
		C443.008,55.556,435.824,59.866,433.429,68.008"/>
</g>
</svg>
