<?xml version="1.0" encoding="utf-8"?>
<!-- Generator: Adobe Illustrator 16.0.0, SVG Export Plug-In . SVG Version: 6.00 Build 0)  -->
<!DOCTYPE svg PUBLIC "-//W3C//DTD SVG 1.1//EN" "http://www.w3.org/Graphics/SVG/1.1/DTD/svg11.dtd">
<svg version="1.1" id="Ebene_1" xmlns="http://www.w3.org/2000/svg" xmlns:xlink="http://www.w3.org/1999/xlink" x="0px" y="0px"
	 width="1191.673px" height="314.485px" viewBox="0 263.703 1191.673 314.485" enable-background="new 0 263.703 1191.673 314.485"
	 xml:space="preserve">
<g>
	<path fill="#FFFFFF" d="M706.467,398.481h31.449v112.316h-31.448v-14.601c-11.232,16.847-25.833,17.97-34.818,17.97
		c-34.818,0-57.281-26.955-57.281-59.527c0-33.694,22.463-59.527,55.035-59.527c8.985,0,25.832,1.123,35.94,17.971v-14.602H706.467z
		 M648.063,454.64c0,17.971,12.355,31.448,31.449,31.448c17.971,0,31.448-13.478,31.448-31.448s-12.354-31.448-31.448-31.448
		C661.541,423.191,648.063,436.669,648.063,454.64z"/>
	<path fill="#FFFFFF" d="M799.69,425.438v85.36h-31.448v-85.36h-12.354v-26.956h12.354v-38.187h31.448v38.187h21.34v26.956H799.69z"
		/>
	<path fill="#FFFFFF" d="M895.158,425.438c-7.862-6.738-14.602-7.862-17.971-7.862c-7.862,0-12.354,3.37-12.354,8.985
		c0,3.37,1.123,6.739,10.108,10.108l7.862,2.247c8.985,3.369,22.463,6.738,28.079,15.724c3.369,4.493,5.615,11.231,5.615,19.094
		c0,10.108-3.369,20.217-12.354,28.079s-20.217,12.354-33.694,12.354c-23.587,0-35.941-11.231-43.804-19.094l16.848-19.094
		c6.738,6.739,15.724,13.479,24.709,13.479s15.725-4.493,15.725-12.354c0-6.739-5.616-10.109-10.108-11.232l-6.739-2.246
		c-7.862-3.369-16.848-6.739-23.586-13.478c-5.616-5.616-8.985-12.355-8.985-21.34c0-11.232,5.615-20.218,11.231-25.833
		c8.985-6.739,20.217-7.862,29.202-7.862c7.861,0,21.34,1.123,35.941,12.354L895.158,425.438z"/>
	<path fill="#FFFFFF" d="M963.671,413.083c11.231-15.725,26.956-17.971,35.941-17.971c32.571,0,55.034,25.833,55.034,59.527
		c0,33.695-22.463,59.527-56.157,59.527c-6.739,0-23.587-1.123-35.941-17.97v14.601h-30.325v-188.69h31.448V413.083z
		 M960.302,454.64c0,17.971,12.354,31.448,31.448,31.448c17.971,0,31.448-13.478,31.448-31.448s-12.354-31.448-31.448-31.448
		S960.302,436.669,960.302,454.64z"/>
	<path fill="#FFFFFF" d="M1106.313,493.95l-53.912-95.469h37.064l34.818,64.021l31.448-64.021h35.941l-89.854,171.844h-35.94
		L1106.313,493.95z"/>
	<path fill="#FFFFFF" d="M606.506,417.575h-31.448h-47.173v31.449h41.557c-6.738,21.34-22.463,35.94-51.665,35.94
		c-32.571,0-56.158-26.955-56.158-59.527c0-32.571,22.464-60.65,55.035-60.65c17.971,0,35.941,8.985,47.173,23.586l25.832-16.847
		c-16.847-23.587-43.803-37.064-73.005-37.064c-49.419,0-89.853,40.434-89.853,90.976s38.188,90.977,89.853,90.977
		s89.853-40.435,89.853-90.977C607.629,422.068,606.506,419.822,606.506,417.575z"/>
</g>
<g>
	<g>
		<path fill="#FFFFFF" d="M280.79,420.945h-78.621v22.463h53.911c-7.862,33.695-32.571,61.773-65.144,73.006L61.774,387.25
			c13.479-39.311,51.665-67.39,95.469-67.39c33.694,0,64.021,16.848,83.114,42.681l16.847-14.602
			c-22.463-30.325-58.404-50.542-99.961-50.542c-58.404,0-107.823,41.557-120.178,96.592l148.257,148.257
			C239.233,528.769,280.79,479.35,280.79,420.945z"/>
		<path fill="#FFFFFF" d="M33.695,422.068c0,31.448,12.354,61.773,35.941,85.36c23.586,23.586,55.035,35.94,85.36,35.94
			L33.695,422.068z"/>
	</g>
	<path fill="#663399" d="M157.242,263.703C70.759,263.703,0,334.462,0,420.945s70.759,157.242,157.242,157.242
		s157.242-70.759,157.242-157.242S243.726,263.703,157.242,263.703z M69.636,508.552c-23.587-23.587-35.941-55.035-35.941-85.36
		l122.425,121.301C124.671,543.369,93.222,532.138,69.636,508.552z M184.198,541.123L37.065,393.989
		c12.354-55.035,61.773-96.592,120.178-96.592c41.557,0,77.498,20.217,99.961,50.542l-16.847,14.602
		c-19.094-25.833-49.42-42.681-83.114-42.681c-43.804,0-80.867,28.079-95.469,67.39l129.163,129.164
		c32.572-11.232,57.281-39.311,65.144-73.006h-53.911v-22.463h78.621C280.79,479.35,239.233,528.769,184.198,541.123z"/>
</g>
</svg>
