<?xml version="1.0" encoding="utf-8"?>
<!-- Generator: Adobe Illustrator 16.0.0, SVG Export Plug-In . SVG Version: 6.00 Build 0)  -->
<!DOCTYPE svg PUBLIC "-//W3C//DTD SVG 1.1//EN" "http://www.w3.org/Graphics/SVG/1.1/DTD/svg11.dtd">
<svg version="1.1" id="Layer_1" xmlns="http://www.w3.org/2000/svg" xmlns:xlink="http://www.w3.org/1999/xlink" x="0px" y="0px"
	 width="147px" height="40px" viewBox="0 0 147 40" enable-background="new 0 0 147 40" xml:space="preserve">
<g>
	<path fill="#FFFFFF" d="M53.37,12.978l0.123,2.198c1.403-1.7,3.245-2.55,5.525-2.55c3.951,0,5.962,2.268,6.032,6.804v12.568h-4.26
		V19.676c0-1.207-0.26-2.1-0.78-2.681c-0.521-0.58-1.371-0.87-2.552-0.87c-1.719,0-3,0.78-3.84,2.338v13.535h-4.262v-19.02h4.016
		H53.37z M77.748,32.35c-2.7,0-4.89-0.852-6.567-2.557c-1.678-1.705-2.517-3.977-2.517-6.813v-0.526
		c0-1.897,0.365-3.595,1.096-5.089c0.729-1.494,1.757-2.657,3.078-3.49c1.321-0.831,2.794-1.247,4.42-1.247
		c2.583,0,4.58,0.826,5.988,2.478c1.41,1.653,2.113,3.99,2.113,7.014v1.723H72.96c0.13,1.57,0.652,2.813,1.569,3.726
		c0.918,0.914,2.074,1.371,3.465,1.371c1.951,0,3.542-0.789,4.77-2.373l2.297,2.199c-0.76,1.135-1.773,2.018-3.041,2.645
		C80.75,32.037,79.327,32.35,77.748,32.35L77.748,32.35z M77.24,16.056c-1.17,0-2.113,0.41-2.832,1.23
		c-0.72,0.82-1.178,1.963-1.377,3.428h8.12v-0.317c-0.094-1.43-0.473-2.51-1.139-3.243C79.344,16.422,78.421,16.056,77.24,16.056z
		 M94.005,8.356v4.623h3.351v3.164h-3.351V26.76c0,0.727,0.144,1.25,0.431,1.573c0.285,0.322,0.797,0.483,1.535,0.483
		c0.501-0.002,1.001-0.061,1.489-0.176v3.305c-0.97,0.27-1.905,0.404-2.806,0.404c-3.273,0-4.91-1.811-4.91-5.432V16.142H86.62
		v-3.164h3.122V8.355h4.261L94.005,8.356z M105.143,31.999h-4.263v-27h4.263V31.999z M114.314,31.999h-4.262v-19.02h4.262V31.999z
		 M109.789,8.039c0-0.655,0.207-1.2,0.622-1.634c0.416-0.433,1.009-0.65,1.78-0.65s1.367,0.217,1.789,0.65
		c0.42,0.434,0.631,0.979,0.631,1.635c0,0.644-0.211,1.18-0.631,1.608c-0.422,0.428-1.018,0.642-1.789,0.642
		s-1.364-0.214-1.78-0.642C109.996,9.221,109.789,8.684,109.789,8.039L109.789,8.039z M120.452,31.999V16.142h-2.894v-3.164h2.894
		v-1.74c0-2.11,0.584-3.738,1.753-4.887c1.17-1.148,2.807-1.722,4.91-1.722c0.748,0,1.544,0.105,2.386,0.316l-0.104,3.34
		c-0.538-0.1-1.084-0.147-1.631-0.14c-2.035,0-3.053,1.048-3.053,3.146v1.687h3.857v3.164h-3.857v15.856L120.452,31.999
		L120.452,31.999z M138.322,25.882l3.857-12.903h4.543l-7.541,21.903c-1.158,3.199-3.121,4.8-5.893,4.8
		c-0.62,0-1.305-0.106-2.053-0.317v-3.306l0.808,0.053c1.075,0,1.886-0.195,2.429-0.588s0.973-1.051,1.289-1.978l0.613-1.635
		l-6.664-18.932h4.596L138.322,25.882z"/>
	<path fill="#FFFFFF" d="M27.887,14.135l-0.014-0.006c-0.008-0.003-0.016-0.006-0.023-0.013c-0.023-0.025-0.034-0.06-0.028-0.093
		l0.773-4.726l3.625,3.626l-3.77,1.604c-0.011,0.004-0.022,0.006-0.033,0.006h-0.015c-0.005-0.003-0.01-0.007-0.02-0.017
		C28.242,14.36,28.074,14.23,27.887,14.135z M33.145,13.847l3.876,3.876c0.805,0.806,1.208,1.208,1.355,1.674
		c0.022,0.069,0.04,0.138,0.054,0.209l-9.263-3.923c-0.005-0.002-0.01-0.004-0.015-0.006c-0.037-0.015-0.08-0.032-0.08-0.07
		s0.044-0.056,0.081-0.071l0.012-0.005L33.145,13.847z M38.272,20.85c-0.2,0.377-0.59,0.767-1.25,1.428l-4.37,4.369L27,25.469
		l-0.03-0.006c-0.05-0.008-0.103-0.018-0.103-0.063c-0.043-0.471-0.281-0.902-0.655-1.192c-0.023-0.022-0.017-0.06-0.01-0.092
		c0-0.005,0-0.011,0.002-0.015l1.063-6.525l0.004-0.022c0.006-0.05,0.015-0.108,0.06-0.108c0.46-0.057,0.878-0.296,1.16-0.665
		c0.009-0.01,0.015-0.021,0.027-0.027c0.032-0.015,0.07,0,0.103,0.014L38.272,20.85L38.272,20.85z M31.647,27.65l-7.186,7.187
		l1.23-7.56l0.002-0.01c0.001-0.011,0.003-0.021,0.006-0.029c0.01-0.024,0.036-0.034,0.061-0.045l0.012-0.004
		c0.27-0.115,0.507-0.293,0.695-0.518c0.024-0.027,0.053-0.055,0.09-0.061c0.009-0.001,0.019-0.001,0.029,0l5.06,1.041L31.647,27.65
		z M22.94,36.357l-0.81,0.811l-8.955-12.941c-0.003-0.006-0.006-0.01-0.01-0.015c-0.014-0.019-0.029-0.038-0.026-0.06
		c0-0.017,0.011-0.03,0.022-0.043l0.01-0.012c0.027-0.041,0.05-0.08,0.075-0.123l0.02-0.035l0.003-0.004
		c0.014-0.023,0.027-0.047,0.051-0.06c0.021-0.01,0.05-0.006,0.073-0.001l9.921,2.046c0.028,0.005,0.054,0.016,0.076,0.033
		c0.013,0.013,0.016,0.026,0.019,0.043c0.14,0.53,0.521,0.966,1.028,1.175c0.028,0.014,0.016,0.045,0.003,0.078
		c-0.006,0.015-0.011,0.029-0.015,0.045C24.3,28.055,23.228,34.593,22.94,36.357z M21.248,38.049
		c-0.597,0.592-0.949,0.904-1.347,1.03c-0.392,0.124-0.813,0.124-1.206,0c-0.466-0.147-0.869-0.55-1.674-1.356L8.028,28.73
		l2.349-3.644c0.011-0.019,0.022-0.034,0.04-0.047c0.025-0.019,0.061-0.01,0.091,0c0.54,0.163,1.118,0.134,1.638-0.083
		c0.027-0.01,0.054-0.018,0.075,0.002c0.01,0.01,0.02,0.021,0.028,0.032L21.248,38.049z M7.16,27.863L5.098,25.8l4.074-1.737
		c0.011-0.005,0.022-0.008,0.033-0.008c0.034,0,0.054,0.034,0.072,0.065c0.041,0.063,0.084,0.124,0.13,0.185L9.42,24.32
		c0.012,0.017,0.004,0.033-0.008,0.05l-2.25,3.493H7.16z M4.184,24.887l-2.61-2.609c-0.444-0.444-0.766-0.767-0.99-1.043L8.52,22.88
		c0.01,0.002,0.02,0.004,0.03,0.005c0.049,0.008,0.103,0.018,0.103,0.063c0,0.05-0.059,0.073-0.109,0.092l-0.023,0.01L4.184,24.887z
		 M0.13,19.892c0.009-0.168,0.04-0.334,0.09-0.495c0.148-0.466,0.55-0.868,1.356-1.674l3.34-3.34
		c1.538,2.232,3.08,4.461,4.626,6.688c0.027,0.035,0.057,0.076,0.026,0.105c-0.146,0.161-0.292,0.338-0.395,0.528
		c-0.011,0.024-0.028,0.046-0.05,0.062c-0.013,0.008-0.027,0.006-0.042,0.002H9.079L0.13,19.892L0.13,19.892z M5.81,13.489
		l4.49-4.491c0.423,0.185,1.96,0.834,3.333,1.414c1.04,0.44,1.988,0.84,2.286,0.97c0.03,0.012,0.057,0.024,0.07,0.054
		c0.008,0.018,0.004,0.041,0,0.06c-0.144,0.658,0.052,1.345,0.523,1.828c0.03,0.03,0,0.073-0.026,0.11l-0.014,0.021l-4.56,7.063
		c-0.012,0.021-0.023,0.037-0.043,0.051c-0.024,0.015-0.058,0.008-0.086,0c-0.178-0.046-0.36-0.071-0.543-0.073
		c-0.164,0-0.342,0.03-0.522,0.063h-0.001c-0.02,0.002-0.038,0.006-0.054-0.006c-0.018-0.014-0.033-0.031-0.045-0.051L5.81,13.489z
		 M11.208,8.091l5.814-5.814c0.805-0.805,1.208-1.208,1.674-1.355c0.393-0.124,0.814-0.124,1.206,0
		c0.466,0.147,0.869,0.55,1.674,1.355l1.26,1.26L18.7,9.94c-0.01,0.019-0.024,0.035-0.041,0.048c-0.025,0.017-0.06,0.01-0.09,0
		c-0.662-0.201-1.38-0.062-1.92,0.37c-0.027,0.028-0.067,0.012-0.101-0.003C16.008,10.12,11.808,8.345,11.208,8.091L11.208,8.091z
		 M23.714,4.415l3.818,3.818l-0.92,5.698v0.015c0,0.013-0.003,0.026-0.008,0.038c-0.01,0.02-0.03,0.024-0.05,0.03
		c-0.197,0.06-0.382,0.152-0.548,0.273c-0.007,0.005-0.014,0.011-0.02,0.017c-0.011,0.012-0.022,0.023-0.04,0.025
		c-0.015,0-0.029-0.002-0.043-0.007l-5.818-2.472l-0.011-0.005c-0.037-0.015-0.081-0.033-0.081-0.071
		c-0.034-0.324-0.14-0.637-0.31-0.915c-0.028-0.046-0.059-0.094-0.035-0.141L23.714,4.415z M19.78,13.02l5.454,2.31
		c0.03,0.014,0.063,0.027,0.076,0.058c0.005,0.019,0.005,0.038,0,0.057c-0.016,0.08-0.03,0.171-0.03,0.263v0.153
		c0,0.038-0.039,0.054-0.075,0.069l-0.011,0.004c-0.864,0.369-12.13,5.173-12.147,5.173s-0.035,0-0.052-0.018
		c-0.03-0.029,0-0.072,0.027-0.109c0.005-0.007,0.009-0.014,0.014-0.021l4.482-6.94l0.008-0.012
		c0.026-0.042,0.056-0.089,0.104-0.089l0.045,0.007c0.102,0.014,0.192,0.027,0.283,0.027c0.68,0,1.31-0.331,1.69-0.897
		c0.009-0.015,0.021-0.029,0.034-0.04C19.709,12.996,19.749,13.006,19.78,13.02z M13.534,22.205l12.28-5.237
		c0,0,0.018,0,0.035,0.017c0.067,0.067,0.124,0.112,0.179,0.154l0.027,0.017c0.025,0.014,0.05,0.03,0.052,0.056
		c0,0.01,0,0.016-0.002,0.025L25.054,23.7l-0.004,0.026c-0.007,0.049-0.014,0.106-0.061,0.106c-0.569,0.038-1.083,0.355-1.373,0.847
		l-0.005,0.008c-0.014,0.023-0.027,0.045-0.05,0.058c-0.021,0.01-0.048,0.006-0.07,0.001l-9.793-2.02
		C13.688,22.725,13.546,22.207,13.534,22.205L13.534,22.205z"/>
</g>
</svg>
