<?xml version="1.0" encoding="utf-8"?>
<!-- Generator: Adobe Illustrator 16.0.0, SVG Export Plug-In . SVG Version: 6.00 Build 0)  -->
<!DOCTYPE svg PUBLIC "-//W3C//DTD SVG 1.1//EN" "http://www.w3.org/Graphics/SVG/1.1/DTD/svg11.dtd">
<svg version="1.1" id="Layer_1" xmlns="http://www.w3.org/2000/svg" xmlns:xlink="http://www.w3.org/1999/xlink" x="0px" y="0px"
	 width="1111.442px" height="209.801px" viewBox="38.999 317.709 1111.442 209.801"
	 enable-background="new 38.999 317.709 1111.442 209.801" xml:space="preserve">
<path fill="#FFFFFF" d="M341.013,450.437c7.077-5.444,8.167-2.359,14.337,3.812c3.085,3.085,11.071,8.348,5.989,12.885
	c-23.049,19.782-57.895,17.241-77.676-5.807c-9.074-10.526-13.793-23.957-13.249-37.75c0.363-14.7,6.896-28.493,17.786-38.111
	c10.345-8.53,23.593-12.886,37.022-12.522c6.716,0,13.249,1.27,19.419,3.811c4.175,1.634,8.167,3.63,11.797,6.353
	c7.26,5.444,3.993,8.893-1.814,14.519l-3.812,3.812c-2.903,2.903-4.9,4.899-8.711,2.359c-7.26-5.445-16.697-7.441-25.59-5.445
	c-28.493,7.441-26.86,58.076,7.985,58.076C330.668,456.063,336.294,454.066,341.013,450.437L341.013,450.437z M1132.474,478.204
	c-4.719,0-8.711-3.812-8.711-8.712V357.334c0-4.719,3.811-8.711,8.711-8.711h9.256c4.719,0,8.711,3.811,8.711,8.711v112.34
	c0,4.719-3.811,8.712-8.711,8.712L1132.474,478.204z M1083.655,465.5c-8.712,9.438-21.234,14.7-34.12,14.519
	c-29.038,0-42.83-23.956-42.83-50.815v-45.554c0-4.719,3.811-8.711,8.711-8.711h9.256c4.719,0,8.711,3.812,8.711,8.711v45.372
	c-1.633,13.066,7.623,24.863,20.508,26.497c1.089,0.181,2.179,0.181,3.448,0.181c14.52-0.362,25.953-12.522,25.59-26.859
	c0-0.363,0-0.727,0-1.089v-16.334c0-0.544,0-1.271,0-1.814v-25.953c0-4.719,3.812-8.711,8.711-8.711h9.256
	c4.719,0,8.712,3.812,8.712,8.711v86.206c0,4.719-3.812,8.53-8.53,8.53l0,0h-7.804c-4.719-0.182-8.349-3.812-8.53-8.53V465.5
	H1083.655z M972.222,375.301h18.148c4.719,0,8.53,3.993,8.53,8.712v5.989c0,4.719-3.812,8.711-8.53,8.711h-18.148v70.961
	c0,4.719-3.812,8.712-8.712,8.712h-9.256c-4.719,0-8.711-3.812-8.711-8.712v-98.002c-1.814-20.508,13.248-38.476,33.575-40.29
	c0.181,0,0.181,0,0.362,0h14.156c4.719,0,8.53,3.992,8.53,8.711v5.444c0,4.719-3.812,8.712-8.53,8.712h-6.896
	c-10.345,0-14.7,7.985-14.7,17.604L972.222,375.301L972.222,375.301z M907.613,375.301h19.782c4.719,0,8.529,3.812,8.529,8.53l0,0
	v5.808c0,4.719-3.811,8.53-8.529,8.53l0,0h-19.782v43.375c0,8.349,3.993,13.248,12.522,13.248h3.992c4.719,0,8.53,3.812,8.53,8.53
	l0,0v5.808c0,4.719-3.812,8.529-8.53,8.529l0,0H912.15c-21.415-1.271-31.034-15.244-31.034-36.115v-84.028
	c0-4.719,3.812-8.53,8.53-8.53l0,0h9.074c4.719,0,8.529,3.812,8.529,8.53l0,0L907.613,375.301L907.613,375.301z M621.227,375.301
	h19.782c4.719,0,8.53,3.812,8.53,8.53v5.808c0,4.719-3.812,8.53-8.53,8.53h-19.237v43.375c0,8.349,3.992,13.248,12.522,13.248h3.993
	c4.718,0,8.529,3.812,8.529,8.53v5.808c0,4.719-3.812,8.529-8.529,8.529h-5.989c-23.412,0-36.842-9.981-36.842-36.297v-83.847
	c0-4.719,3.812-8.53,8.529-8.53h9.075c4.718,0,8.529,3.812,8.529,8.53v17.785H621.227z M505.076,387.824
	c8.529-9.074,20.508-14.338,33.03-14.52c28.856,0,44.101,23.775,44.101,50.816v45.553c0,4.719-3.811,8.712-8.711,8.712l0,0h-9.256
	c-4.719,0-8.711-3.812-8.711-8.712l0,0v-45.371c1.633-13.067-7.623-24.864-20.508-26.497c-1.09-0.182-2.359-0.182-3.449-0.182
	c-14.519,0.363-25.952,12.522-25.407,26.86c0,0.362,0,0.544,0,0.907v44.101c0,4.719-3.812,8.53-8.53,8.53h-9.074
	c-4.719,0-8.53-3.812-8.53-8.53v-86.024c0-4.718,3.812-8.529,8.53-8.529h7.804c4.719,0.182,8.349,3.812,8.53,8.529L505.076,387.824
	L505.076,387.824z M791.643,387.824c8.53-9.074,20.508-14.338,33.03-14.52c28.856,0,44.102,23.775,44.102,50.816v45.553
	c0,4.719-3.812,8.712-8.712,8.712h-9.256c-4.719,0-8.711-3.812-8.711-8.712v-45.371c1.634-13.067-7.622-24.864-20.508-26.497
	c-1.089-0.182-2.359-0.182-3.448-0.182c-14.519,0.363-25.952,12.522-25.408,26.86c0,0.362,0,0.544,0,0.907v44.101
	c0,4.719-3.812,8.53-8.53,8.53h-9.256c-4.718,0-8.529-3.812-8.529-8.53v-86.024c0-4.718,3.812-8.529,8.529-8.529h7.805
	c4.719,0.182,8.348,3.812,8.529,8.529v4.537L791.643,387.824z M417.055,372.942c-28.675-0.908-52.631,21.415-53.538,50.09
	c0,1.271,0,2.541,0,3.812c0,29.764,24.138,53.72,53.72,53.72s53.72-24.138,53.72-53.72c0.907-28.856-21.597-52.994-50.453-53.901
	C419.414,372.942,418.144,372.942,417.055,372.942z M677.669,436.462c3.267,13.249,15.971,22.142,29.582,20.327
	c6.716-0.182,13.431-1.634,19.42-4.356l2.903-1.451c3.267-1.815,6.171-2.904,9.074,0l4.719,4.718
	c1.452,1.452,2.904,3.086,4.174,4.537c4.356,5.445,1.271,6.896-3.629,10.164c-11.071,7.259-23.957,11.07-37.205,11.07
	c-34.119,0-56.806-20.689-56.806-55.172c-1.271-28.493,20.689-52.813,49.364-54.083c1.997,0,3.812,0,5.808,0
	c33.031,0,52.087,19.419,52.632,52.631c0,9.074,0.544,11.979-8.894,11.979L677.669,436.462z M417.962,397.08
	c15.608,0.362,27.949,13.248,27.586,28.855c0,0.182,0,0.545,0,0.727c1.271,14.882-9.618,28.13-24.682,29.582
	c-14.882,1.271-28.13-9.619-29.582-24.682c-0.182-1.634-0.182-3.268,0-4.9c-1.271-15.063,9.981-28.313,25.045-29.401
	c0.726,0,1.452,0,1.996,0L417.962,397.08z M678.94,413.958h52.994c-2.178-12.16-13.611-20.326-25.771-18.512
	C694.003,394.901,682.933,402.524,678.94,413.958L678.94,413.958z"/>
<g>
	<path fill="none" stroke="#FFFFFF" stroke-width="5" stroke-miterlimit="10" d="M182.575,380.928c0,0,17.785,20.508,35.753,1.633
		c17.967-18.874-10.526-39.201-10.526-39.201S149,290.91,78.402,343.904c0,0-38.656,29.582-36.841,84.572
		c1.814,54.99,48.094,80.943,48.094,80.943s56.079,37.931,115.425-4.537c0,0,28.856-15.245,12.341-40.472
		c0,0-16.333-18.33-30.489-2.904c-14.156,15.427-50.816,32.123-83.665,1.271c-32.85-30.853-15.063-94.917,37.023-96.913
		C140.289,365.864,162.612,362.96,182.575,380.928z"/>
	<circle fill="none" stroke="#FFFFFF" stroke-width="5" stroke-miterlimit="10" cx="86.569" cy="366.045" r="22.141"/>
	<circle fill="none" stroke="#FFFFFF" stroke-width="5" stroke-miterlimit="10" cx="87.657" cy="478.93" r="22.141"/>
</g>
</svg>
